<svg width="32" height="19" viewBox="0 0 32 19" fill="none" xmlns="http://www.w3.org/2000/svg">
<g clip-path="url(#clip0_20_2153)">
<path d="M26.1947 13.7532C28.2648 11.2824 32 4.85233 32 4.85233C31.383 4.08578 27.5995 0 27.5995 0C25.4216 0.00372111 18.2225 0.00744222 16.0446 0.00372111L0 0V4.89698H11.1721V6.48218L3.59024 14.103H0V19H5.60465L16.0446 8.50646V4.87094H18.9733C21.0955 4.85977 23.2288 4.86349 25.4736 4.86349C25.18 5.25421 22.6825 9.38837 22.6825 9.38837C20.3298 9.41813 16.3865 9.46651 16.3865 9.46651L22.9686 19C25.0091 18.9851 27.0532 18.9963 29.0973 18.9926C29.2646 18.9926 29.4913 18.9851 29.8369 18.9851C28.4618 17.3515 27.1015 15.7477 25.8081 14.2109C25.9531 14.0398 26.0757 13.8984 26.1947 13.7532Z" fill="#EAF700"/>
</g>
<defs>
<clipPath id="clip0_20_2153">
<rect width="32" height="19" fill="white"/>
</clipPath>
</defs>
</svg>
